<svg width="90" height="28" viewBox="0 0 90 28" fill="none" xmlns="http://www.w3.org/2000/svg">
<g clip-path="url(#clip0_8_74)">
<path d="M25.7987 19.8442C25.6576 19.503 25.5252 19.1442 25.384 18.838L24.7311 17.3767L24.7046 17.3505C22.7634 13.1505 20.6899 8.88047 18.4929 4.68047L18.4046 4.50547C18.184 4.09422 17.9634 3.63922 17.734 3.21922C17.4517 2.72047 17.1782 2.18672 16.7282 1.67922C16.2895 1.14821 15.7375 0.720384 15.1119 0.426617C14.4863 0.13285 13.8027 -0.0195312 13.1105 -0.0195312C12.4183 -0.0195312 11.7347 0.13285 11.1091 0.426617C10.4835 0.720384 9.9315 1.14821 9.49286 1.67922C9.07815 2.18672 8.76933 2.72047 8.48698 3.21922C8.26639 3.67422 8.0458 4.12047 7.81639 4.53172L7.72815 4.70672C5.56639 8.90672 3.45757 13.1767 1.51639 17.3767L1.46345 17.4292C1.26933 17.8842 1.03992 18.3567 0.819331 18.8642C0.678155 19.1705 0.536978 19.503 0.395802 19.8705C0.0146542 20.8328 -0.107058 21.877 0.0426598 22.9001C0.192378 23.9233 0.608359 24.8901 1.24961 25.7053C1.89085 26.5205 2.73523 27.1559 3.69953 27.549C4.66383 27.942 5.71475 28.0791 6.74874 27.9467C7.74004 27.8173 8.69457 27.4899 9.55462 26.9842C10.7017 26.3455 11.8046 25.418 13.0399 24.0792C14.2752 25.418 15.4046 26.3455 16.5252 26.993C17.6028 27.6202 18.8232 27.9664 20.0723 27.9992C21.5188 28.0052 22.9186 27.492 24.0133 26.5543C25.108 25.6167 25.8237 24.318 26.0282 22.898C26.2645 21.8775 26.1845 20.8101 25.7987 19.8355V19.8442ZM13.1282 21.2967C11.6105 19.3717 10.6223 17.6042 10.287 16.0905C10.1481 15.5295 10.1181 14.9475 10.1987 14.3755C10.2605 13.9292 10.4282 13.5355 10.6576 13.203C11.187 12.4417 12.1134 11.9692 13.1282 11.9692C13.61 11.9546 14.088 12.0589 14.5192 12.2727C14.9505 12.4865 15.3214 12.8032 15.5987 13.1942C15.8282 13.5442 15.9958 13.9292 16.0487 14.3755C16.137 14.883 16.1017 15.4692 15.9605 16.0905C15.6252 17.578 14.637 19.363 13.1282 21.2967ZM24.3693 22.5917C24.2691 23.3127 23.9801 23.995 23.5311 24.5707C23.0822 25.1464 22.4889 25.5954 21.8105 25.873C21.1399 26.153 20.3987 26.2317 19.6752 26.153C18.9693 26.0655 18.2634 25.838 17.5399 25.418C16.3386 24.6817 15.2584 23.7668 14.337 22.7055C16.1899 20.4305 17.3105 18.3567 17.734 16.5105C17.937 15.6355 17.9634 14.848 17.8752 14.1217C17.765 13.4333 17.5062 12.7767 17.1164 12.1967C16.6713 11.5678 16.0773 11.057 15.3865 10.7091C14.6957 10.3613 13.9293 10.187 13.1546 10.2017C11.5223 10.2017 10.0664 10.9542 9.18404 12.188C8.78684 12.7665 8.53013 13.4284 8.43404 14.1217C8.31933 14.8567 8.3458 15.6705 8.57521 16.5105C8.99874 18.3567 10.1458 20.4567 11.9723 22.723C11.0665 23.8046 9.98377 24.7275 8.76933 25.453C8.03698 25.873 7.33992 26.0917 6.63404 26.1792C5.53629 26.3187 4.4274 26.0228 3.54841 25.3559C2.66942 24.6891 2.09138 23.7051 1.93992 22.618C1.85168 21.918 1.91345 21.218 2.1958 20.4305C2.28404 20.1505 2.41639 19.8705 2.55757 19.538C2.75168 19.083 2.9811 18.6105 3.20168 18.138L3.23698 18.0767C5.14286 13.903 7.22521 9.64172 9.38698 5.46797L9.47521 5.29297C9.6958 4.87297 9.91639 4.42672 10.1458 4.00672C10.3752 3.56047 10.6223 3.13172 10.9399 2.78172C11.2149 2.45624 11.5584 2.19448 11.9464 2.01488C12.3344 1.83528 12.7573 1.74221 13.1855 1.74221C13.6137 1.74221 14.0366 1.83528 14.4246 2.01488C14.8126 2.19448 15.1561 2.45624 15.4311 2.78172C15.7399 3.13172 15.9958 3.56047 16.2252 4.00672C16.4458 4.42672 16.6664 4.88172 16.8958 5.29297L16.984 5.46797C19.137 9.64172 21.2193 13.903 23.1605 18.0767L23.187 18.103C23.4164 18.558 23.6105 19.0655 23.8311 19.503C23.9723 19.8442 24.1134 20.1155 24.2017 20.4042C24.3693 21.1917 24.4576 21.8917 24.3693 22.5917V22.5917ZM36.6517 21.1042C35.9868 21.1139 35.3282 20.9749 34.7249 20.6977C34.1215 20.4205 33.5889 20.0122 33.1664 19.503C32.217 18.4179 31.7132 17.0189 31.7546 15.583C31.7401 14.1158 32.2602 12.6927 33.2193 11.5755C33.663 11.0598 34.2152 10.6468 34.8372 10.3656C35.4592 10.0844 36.1358 9.94184 36.8193 9.94797C37.4625 9.93051 38.0996 10.0755 38.6707 10.3694C39.2418 10.6633 39.7282 11.0964 40.084 11.628L40.1723 10.2542H42.7487V20.8242H40.1634L40.0752 19.2842C39.7083 19.8518 39.2012 20.3169 38.602 20.6355C38.0028 20.954 37.3314 21.1154 36.6517 21.1042V21.1042ZM37.3223 18.5842C37.834 18.5842 38.284 18.4442 38.7076 18.1905C39.0958 17.9105 39.4134 17.543 39.6605 17.0967C39.8811 16.6505 39.9958 16.1167 39.9958 15.5217C40.0302 15.0049 39.9288 14.4882 39.7014 14.0219C39.4741 13.5556 39.1286 13.1559 38.6987 12.8617C38.2857 12.6065 37.8089 12.4713 37.3223 12.4713C36.8357 12.4713 36.3588 12.6065 35.9458 12.8617C35.5576 13.1417 35.2399 13.5092 34.9929 13.9555C34.7595 14.4476 34.6447 14.9868 34.6576 15.5305C34.6232 16.0472 34.7246 16.564 34.952 17.0303C35.1793 17.4965 35.5248 17.8963 35.9546 18.1905C36.3693 18.4442 36.8193 18.5842 37.3223 18.5842ZM47.1605 7.40172C47.1605 7.70797 47.1076 7.98797 46.9664 8.21547C46.8252 8.43422 46.6311 8.63547 46.3752 8.77547C46.1193 8.91547 45.8458 8.96797 45.5634 8.96797C45.2811 8.96797 44.9987 8.91547 44.7429 8.77547C44.5009 8.64187 44.2973 8.44909 44.1517 8.21547C44.015 7.96621 43.948 7.68527 43.9576 7.40172C43.9576 7.08672 44.0193 6.80672 44.1517 6.58797C44.2929 6.32547 44.4958 6.16797 44.7429 6.02797C44.9987 5.88797 45.2723 5.82672 45.5634 5.82672C45.8443 5.8203 46.122 5.88627 46.3695 6.01816C46.617 6.15006 46.8257 6.34338 46.9752 6.57922C47.1036 6.83432 47.1672 7.11668 47.1605 7.40172V7.40172ZM44.1605 20.7892V10.2367H46.9664V20.8067H44.1517L44.1605 20.7892ZM54.4664 13.0017V13.0367C54.334 12.9755 54.1576 12.9492 54.0252 12.923C53.8487 12.888 53.7076 12.888 53.5399 12.888C52.7546 12.888 52.1634 13.1155 51.7752 13.588C51.3517 14.0692 51.1576 14.743 51.1576 15.6092V20.798H48.3429V10.228H50.9282L51.0164 11.8292C51.2987 11.2692 51.634 10.8492 52.1105 10.5342C52.5844 10.2282 53.1424 10.0753 53.7076 10.0967C53.9105 10.0967 54.1046 10.1142 54.2723 10.1492C54.3605 10.1755 54.4134 10.1755 54.4664 10.2017V13.0017V13.0017ZM55.5958 20.7892V5.89672H58.4017V11.5842C58.7987 11.0767 59.2487 10.683 59.8134 10.3767C60.7074 9.94205 61.723 9.81875 62.6964 10.0267C63.6697 10.2347 64.544 10.7618 65.1782 11.523C66.1296 12.6102 66.6336 14.0128 66.5899 15.4517C66.6044 16.9189 66.0843 18.342 65.1252 19.4592C64.6816 19.9749 64.1293 20.3879 63.5073 20.6691C62.8853 20.9503 62.2088 21.0928 61.5252 21.0867C60.882 21.1042 60.2449 20.9591 59.6738 20.6653C59.1027 20.3714 58.6164 19.9383 58.2605 19.4067L58.1723 20.7805L55.5958 20.8067V20.7892ZM61.0223 18.5842C61.5252 18.5842 61.9752 18.4442 62.3987 18.1905C62.787 17.9105 63.1046 17.543 63.3517 17.0967C63.5811 16.6505 63.687 16.1167 63.687 15.5217C63.687 14.9355 63.5811 14.4017 63.3517 13.9555C63.12 13.5252 62.7944 13.1515 62.3987 12.8617C61.9857 12.6065 61.5089 12.4713 61.0223 12.4713C60.5357 12.4713 60.0588 12.6065 59.6458 12.8617C59.2487 13.1417 58.9399 13.5092 58.684 13.9555C58.4507 14.4476 58.3359 14.9868 58.3487 15.5305C58.3143 16.0472 58.4158 16.564 58.6431 17.0303C58.8705 17.4965 59.216 17.8963 59.6458 18.1905C60.0605 18.4442 60.5105 18.5842 61.0223 18.5842ZM67.6487 20.798V10.228H70.234L70.3223 11.6017C70.6472 11.0751 71.108 10.6442 71.6572 10.3534C72.2063 10.0627 72.8238 9.9227 73.4458 9.94797C74.1571 9.93579 74.8562 10.1318 75.4557 10.5116C76.0552 10.8913 76.5285 11.4379 76.8164 12.083C77.1252 12.748 77.2929 13.5705 77.2929 14.4892V20.8242H74.4782V14.8567C74.4782 14.1217 74.3105 13.5442 73.9752 13.1155C73.6399 12.6955 73.1811 12.468 72.5987 12.468C72.1752 12.468 71.8046 12.5555 71.4782 12.748C71.1693 12.9492 70.9134 13.203 70.7193 13.5617C70.5231 13.9244 70.4257 14.3316 70.437 14.743V20.798H67.6487V20.798ZM78.6958 20.798V5.88797H81.5105V11.5755C81.8918 11.0651 82.3877 10.65 82.959 10.3629C83.5303 10.0758 84.1612 9.92477 84.8017 9.92172C85.4666 9.91207 86.1251 10.051 86.7285 10.3282C87.3318 10.6054 87.8645 11.0138 88.287 11.523C89.2316 12.6102 89.7321 14.0085 89.6899 15.443C89.7052 16.9103 89.185 18.3336 88.2252 19.4505C87.7816 19.9662 87.2293 20.3792 86.6073 20.6604C85.9853 20.9415 85.3088 21.0841 84.6252 21.078C83.982 21.0954 83.3449 20.9504 82.7738 20.6565C82.2027 20.3626 81.7164 19.9295 81.3605 19.398L81.2811 20.7717L78.6958 20.798V20.798ZM84.1487 18.5842C84.6605 18.5842 85.1105 18.4442 85.5252 18.1905C85.9223 17.9105 86.2311 17.543 86.487 17.0967C86.7076 16.6505 86.8223 16.1167 86.8223 15.5217C86.8567 15.0049 86.7552 14.4882 86.5279 14.0219C86.3005 13.5556 85.955 13.1559 85.5252 12.8617C85.1122 12.6065 84.6353 12.4713 84.1487 12.4713C83.6621 12.4713 83.1853 12.6065 82.7723 12.8617C82.384 13.1417 82.0664 13.5092 81.8193 13.9555C81.573 14.4432 81.4576 14.9856 81.484 15.5305C81.4496 16.0472 81.5511 16.564 81.7784 17.0303C82.0058 17.4965 82.3513 17.8963 82.7811 18.1905C83.1958 18.4442 83.6193 18.5842 84.1487 18.5842Z" fill="#FF385C"/>
</g>
<defs>
<clipPath id="clip0_8_74">
<rect width="90" height="28" fill="white"/>
</clipPath>
</defs>
</svg>
