<svg width="84" height="24" viewBox="0 0 84 24" fill="none" xmlns="http://www.w3.org/2000/svg">
<g clip-path="url(#clip0_8_76)">
<path d="M9.09675 3.97266V10.7424H2.92846V3.97266H0V20.1327H2.92846V13.5828H9.09675V20.1327H12.0252V3.97266H9.09675Z" fill="#33475B"/>
<path d="M21.3966 14.9089C21.3966 15.5566 21.1414 16.1777 20.687 16.6356C20.2327 17.0936 19.6165 17.3508 18.9739 17.3508C18.3314 17.3508 17.7152 17.0936 17.2608 16.6356C16.8065 16.1777 16.5512 15.5566 16.5512 14.9089V7.9873H13.7734V14.9089C13.7734 16.2978 14.3208 17.6298 15.2952 18.6119C16.2695 19.5939 17.591 20.1457 18.9689 20.1457C20.3468 20.1457 21.6683 19.5939 22.6427 18.6119C23.617 17.6298 24.1644 16.2978 24.1644 14.9089V7.9873H21.3966V14.9089Z" fill="#33475B"/>
<path d="M41.9777 8.70035C41.9777 7.28161 42.9089 6.83183 43.9291 6.83183C44.7512 6.83183 45.8374 7.46238 46.5476 8.22743L48.367 6.06678C47.4587 4.82882 45.6164 3.97266 44.1084 3.97266C41.0953 3.97266 38.9158 5.75151 38.9158 8.70035C38.9158 14.1714 45.5504 12.4359 45.5504 15.4976C45.5504 16.442 44.6408 17.2764 43.5991 17.2764C41.9562 17.2764 41.4239 16.4665 40.6692 15.6104L38.6504 17.7262C39.9417 19.3243 41.5344 20.1356 43.4427 20.1356C46.3052 20.1356 48.608 18.3351 48.608 15.5207C48.608 9.44659 41.9734 11.3339 41.9734 8.70035" fill="#33475B"/>
<path d="M83.022 17.5512C81.3805 17.5512 80.9142 16.8353 80.9142 15.7391V10.887H83.4653V8.42844H80.9142V5.18457L78.0977 6.45869V16.3421C78.0977 18.8701 79.828 20.1443 82.2012 20.1443C82.5734 20.1511 82.9454 20.1211 83.3118 20.0546L83.9991 17.5049C83.6891 17.5266 83.3333 17.5483 83.022 17.5483" fill="#33475B"/>
<path d="M31.9702 8.06813C30.5942 8.06813 29.6343 8.47018 28.7059 9.38853V4.06934H25.9238V13.9282C25.9238 17.619 28.5711 20.1469 31.5454 20.1469C34.8455 20.1469 37.7482 17.5741 37.7482 14.109C37.7482 10.6872 35.0765 8.06958 31.9702 8.06958V8.06813ZM31.9529 17.3254C31.3286 17.3254 30.7183 17.1388 30.1992 16.7892C29.6801 16.4396 29.2755 15.9426 29.0366 15.3613C28.7977 14.7799 28.7352 14.1402 28.857 13.523C28.9788 12.9058 29.2794 12.3389 29.7209 11.8939C30.1623 11.4489 30.7248 11.1459 31.3371 11.0231C31.9494 10.9004 32.5841 10.9634 33.1609 11.2042C33.7377 11.445 34.2307 11.8528 34.5776 12.376C34.9244 12.8993 35.1095 13.5144 35.1095 14.1437C35.1095 14.9875 34.777 15.7968 34.185 16.3935C33.593 16.9902 32.7901 17.3254 31.9529 17.3254Z" fill="#33475B"/>
<path d="M62.1798 13.9618C62.1798 10.4909 59.2829 7.92383 55.9771 7.92383C53.0027 7.92383 50.3555 10.4518 50.3555 14.1426V24.0072H53.1376V18.6808C54.0645 19.5977 55.0258 20.0012 56.4004 20.0012C59.5067 20.0012 62.1784 17.385 62.1784 13.9618H62.1798ZM59.5455 13.9271C59.5455 14.5564 59.3603 15.1715 59.0135 15.6947C58.6666 16.2179 58.1736 16.6258 57.5969 16.8666C57.0201 17.1074 56.3854 17.1704 55.7731 17.0476C55.1607 16.9249 54.5983 16.6218 54.1568 16.1769C53.7154 15.7319 53.4147 15.165 53.2929 14.5478C53.1711 13.9306 53.2336 13.2909 53.4726 12.7095C53.7115 12.1281 54.1161 11.6312 54.6352 11.2816C55.1543 10.932 55.7646 10.7454 56.3889 10.7454C57.2261 10.7454 58.0289 11.0806 58.6209 11.6773C59.2129 12.274 59.5455 13.0832 59.5455 13.9271Z" fill="#33475B"/>
<path d="M71.1666 7.78787V4.97063C71.536 4.79667 71.8488 4.52054 72.0685 4.17438C72.2882 3.82823 72.4059 3.42628 72.4077 3.01535V2.95027C72.4077 2.37493 72.181 1.82315 71.7774 1.41632C71.3738 1.00949 70.8263 0.780939 70.2555 0.780939H70.191C69.6202 0.780939 69.0727 1.00949 68.6691 1.41632C68.2655 1.82315 68.0387 2.37493 68.0387 2.95027V3.01535C68.0406 3.42628 68.1583 3.82823 68.378 4.17438C68.5977 4.52054 68.9105 4.79667 69.2798 4.97063V7.78787C68.2182 7.95157 67.2184 8.3951 66.3815 9.07356L58.7167 3.05584C58.771 2.8574 58.7999 2.6528 58.8028 2.44698C58.8037 1.96352 58.6622 1.49067 58.3964 1.08823C58.1306 0.685791 57.7524 0.371847 57.3096 0.186108C56.8667 0.000369021 56.3792 -0.0488204 55.9086 0.0447614C55.438 0.138343 55.0056 0.370492 54.6659 0.711844C54.3262 1.0532 54.0946 1.48842 54.0004 1.96245C53.9061 2.43649 53.9535 2.92805 54.1365 3.37496C54.3194 3.82186 54.6298 4.20404 55.0283 4.47314C55.4267 4.74224 55.8954 4.88618 56.3751 4.88675C56.7945 4.88486 57.2061 4.77217 57.5689 4.55991L65.1174 10.4793C64.4392 11.5118 64.0853 12.7264 64.1019 13.9647C64.1186 15.203 64.5049 16.4075 65.2107 17.4211L62.915 19.7351C62.7293 19.6753 62.5359 19.6436 62.3411 19.6411C61.9473 19.6414 61.5625 19.7593 61.2352 19.98C60.9079 20.2007 60.6529 20.5142 60.5023 20.8809C60.3517 21.2477 60.3124 21.6511 60.3893 22.0404C60.4662 22.4296 60.6558 22.7872 60.9343 23.0678C61.2127 23.3485 61.5674 23.5396 61.9536 23.6171C62.3398 23.6946 62.7401 23.655 63.104 23.5033C63.4678 23.3515 63.7789 23.0944 63.9978 22.7646C64.2167 22.4347 64.3337 22.0468 64.334 21.6499C64.3316 21.4534 64.3001 21.2585 64.2408 21.0714L66.5121 18.782C67.2527 19.3565 68.114 19.7525 69.0298 19.9397C69.9457 20.1268 70.892 20.1003 71.7961 19.8619C72.7002 19.6236 73.5383 19.1799 74.246 18.5647C74.9537 17.9495 75.5124 17.1793 75.8792 16.3129C76.246 15.4465 76.4112 14.507 76.3621 13.5664C76.3131 12.6257 76.0511 11.7088 75.5962 10.886C75.1414 10.0631 74.5057 9.35614 73.7379 8.81913C72.9701 8.28212 72.0906 7.92936 71.1666 7.78787ZM70.2254 17.0523C69.6041 17.0518 68.9969 16.8656 68.4806 16.5173C67.9642 16.169 67.5619 15.6742 67.3245 15.0955C67.0871 14.5168 67.0252 13.8801 67.1466 13.266C67.2681 12.6518 67.5674 12.0878 68.0069 11.6451C68.4463 11.2023 69.006 10.9009 69.6154 10.7787C70.2248 10.6566 70.8564 10.7193 71.4304 10.9589C72.0044 11.1984 72.4951 11.6042 72.8404 12.1248C73.1858 12.6454 73.3702 13.2574 73.3705 13.8837C73.3705 14.7237 73.0395 15.5293 72.4502 16.1232C71.8609 16.7172 71.0616 17.0509 70.2283 17.0509" fill="#FF7A59"/>
</g>
<defs>
<clipPath id="clip0_8_76">
<rect width="84" height="24" fill="white"/>
</clipPath>
</defs>
</svg>
