<svg width="37" height="37" viewBox="0 0 37 37" fill="none" xmlns="http://www.w3.org/2000/svg">
<path d="M29.2923 9.25H7.70898C5.15467 9.25 3.08398 11.3207 3.08398 13.875V18.0697L13.625 21.5833H23.3763L33.9173 18.0697V13.875C33.9173 11.3207 31.8466 9.25 29.2923 9.25Z" fill="#C3E8F1"/>
<path d="M15.4173 9.25V7.70833H21.584V9.25H24.6673V7.70833C24.6654 6.00626 23.2861 4.62694 21.584 4.625H15.4173C13.7152 4.62694 12.3359 6.00626 12.334 7.70833V9.25H15.4173ZM13.625 21.5833L3.08398 18.0696V27.75C3.08677 30.3032 5.15581 32.3722 7.70898 32.375H29.2923C31.8455 32.3722 33.9145 30.3032 33.9173 27.75V18.0696L23.3763 21.5833H13.625Z" fill="#027794"/>
</svg>
