<svg width="18" height="18" viewBox="0 0 18 18" fill="none" xmlns="http://www.w3.org/2000/svg">
<path d="M4.28571 0C1.92371 0 0 1.92371 0 4.28571V13.7143C0 16.0763 1.92371 18 4.28571 18H13.7143C16.0763 18 18 16.0763 18 13.7143V4.28571C18 1.92371 16.0763 0 13.7143 0H4.28571ZM6.00251 3.44699C6.27165 3.45856 6.51883 3.6102 6.66797 3.84291C6.83768 4.10777 7.10106 4.51882 7.44392 5.05497C7.75677 5.54397 7.77859 6.17555 7.49916 6.68555L6.87137 7.57868C6.70166 7.8204 6.66781 8.12977 6.78181 8.40234C6.95924 8.82663 7.3032 9.4787 7.91434 10.0898C8.52548 10.701 9.17756 11.0449 9.60184 11.2224C9.87441 11.3364 10.1838 11.3025 10.4255 11.1328L11.3186 10.505C11.8286 10.2256 12.4602 10.2478 12.9492 10.5603C13.4854 10.9031 13.8964 11.1665 14.1613 11.3362C14.394 11.4854 14.5456 11.7325 14.5572 12.0017C14.6232 13.5291 13.4398 14.1479 13.0957 14.1479C12.8574 14.1479 9.99272 14.4735 6.76172 11.2425C3.53072 8.01147 3.85631 5.14677 3.85631 4.90848C3.85631 4.56434 4.47508 3.38099 6.00251 3.44699Z" fill="#F5F5F5"/>
</svg>
