<svg width="37" height="37" viewBox="0 0 37 37" fill="none" xmlns="http://www.w3.org/2000/svg">
<path d="M23.1246 3.0835C17.9181 3.08569 13.456 6.80604 12.5176 11.9273C16.9991 9.47489 22.6201 11.1198 25.0725 15.6013C26.5865 18.368 26.5865 21.7155 25.0725 24.4822C30.9328 23.4087 34.8133 17.7877 33.7398 11.9274C32.8011 6.80294 28.3343 3.08152 23.1246 3.0835Z" fill="#C3E8F1"/>
<path d="M10.7923 33.9167C15.0495 33.9167 18.5007 30.4655 18.5007 26.2083C18.5007 21.9511 15.0495 18.5 10.7923 18.5C6.53512 18.5 3.08398 21.9511 3.08398 26.2083C3.08398 30.4655 6.53512 33.9167 10.7923 33.9167Z" fill="#027794"/>
<path d="M16.9577 10.7915C12.2041 10.792 8.22472 14.3953 7.75391 19.1255C11.6633 17.4458 16.1941 19.2534 17.8737 23.1627C18.7079 25.1044 18.7079 27.3036 17.8737 29.2453C22.957 28.7398 26.6681 24.2092 26.1627 19.1259C25.6923 14.3949 21.7119 10.7911 16.9577 10.7915Z" fill="#52A0B4"/>
</svg>
