<svg width="24" height="25" viewBox="0 0 24 25" fill="none" xmlns="http://www.w3.org/2000/svg">
<path opacity="0.1" fill-rule="evenodd" clip-rule="evenodd" d="M0 12.3857C0 5.75833 5.37258 0.385742 12 0.385742C18.6274 0.385742 24 5.75833 24 12.3857C24 19.0132 18.6274 24.3857 12 24.3857C5.37258 24.3857 0 19.0132 0 12.3857Z" fill="#F9F8F9"/>
<path fill-rule="evenodd" clip-rule="evenodd" d="M18.3996 12.377C18.3996 12.8098 18.3555 13.242 18.269 13.6633C18.1846 14.0746 18.0596 14.4784 17.8958 14.8644C17.7359 15.2436 17.5374 15.609 17.3055 15.9498C17.0771 16.2884 16.8139 16.6061 16.5248 16.8957C16.2351 17.184 15.9164 17.4465 15.5779 17.6759C15.236 17.9061 14.8701 18.1043 14.4907 18.265C14.1041 18.4279 13.6994 18.5527 13.2884 18.637C12.8666 18.7238 12.4328 18.7681 11.9993 18.7681C11.5656 18.7681 11.1318 18.7238 10.7105 18.637C10.2989 18.5527 9.89422 18.4279 9.50795 18.265C9.12856 18.1043 8.76228 17.9061 8.42039 17.6759C8.08194 17.4465 7.76317 17.184 7.47409 16.8957C7.18471 16.6061 6.92156 16.2884 6.6928 15.9498C6.46216 15.609 6.26339 15.2436 6.10277 14.8644C5.93899 14.4784 5.81369 14.0746 5.72899 13.6633C5.64337 13.242 5.59961 12.8098 5.59961 12.377C5.59961 11.9438 5.64335 11.5107 5.72902 11.0903C5.81371 10.679 5.93902 10.2746 6.10279 9.88917C6.26342 9.5097 6.46219 9.14397 6.69283 8.80318C6.92159 8.46429 7.18474 8.14721 7.47412 7.85729C7.7632 7.56893 8.08196 7.30713 8.42042 7.07808C8.7623 6.84683 9.12859 6.64869 9.50797 6.48765C9.89425 6.32441 10.2989 6.19929 10.7105 6.11566C11.1318 6.02954 11.5656 5.98584 11.9993 5.98584C12.4328 5.98584 12.8666 6.02954 13.2885 6.11566C13.6994 6.19931 14.1041 6.32443 14.4907 6.48765C14.8701 6.64866 15.2361 6.84683 15.5779 7.07808C15.9164 7.30713 16.2352 7.56893 16.5249 7.85729C16.814 8.14721 17.0771 8.46429 17.3055 8.80318C17.5374 9.14397 17.7359 9.50973 17.8958 9.88917C18.0596 10.2746 18.1846 10.679 18.269 11.0903C18.3555 11.5107 18.3996 11.9438 18.3996 12.377ZM9.6673 7.44037C8.14314 8.15908 7.00558 9.5615 6.65087 11.2516C6.79496 11.2529 9.07258 11.2816 11.6968 10.5854C10.7508 8.90708 9.74012 7.53745 9.6673 7.44037ZM12.1496 11.4258C9.33541 12.2671 6.63494 12.2066 6.53807 12.2028C6.53649 12.2615 6.53369 12.3183 6.53369 12.377C6.53369 13.7791 7.0634 15.0573 7.93407 16.0238C7.93219 16.0209 9.42792 13.3712 12.3774 12.4188C12.4487 12.3951 12.5212 12.3738 12.5931 12.3532C12.4559 12.0431 12.3062 11.7322 12.1496 11.4258ZM15.6089 8.28078C14.6466 7.4335 13.3831 6.91956 11.9993 6.91956C11.5552 6.91956 11.1242 6.97324 10.7114 7.07247C10.7933 7.18234 11.8199 8.5423 12.7546 10.2561C14.817 9.48411 15.5954 8.30074 15.6089 8.28078ZM12.9656 13.2576C12.9535 13.2616 12.9413 13.2651 12.9294 13.2695C9.70458 14.3921 8.65148 16.6544 8.64008 16.6791C9.56796 17.3996 10.7318 17.8344 11.9993 17.8344C12.7562 17.8344 13.4772 17.6805 14.1332 17.4018C14.0522 16.925 13.7347 15.2536 12.9656 13.2576ZM15.0535 16.9032C16.2808 16.0762 17.1524 14.763 17.3955 13.242C17.283 13.2058 15.7539 12.7224 13.9897 13.0048C14.7066 14.9721 14.9979 16.5743 15.0535 16.9032ZM13.1753 11.0694C13.3022 11.3297 13.425 11.5946 13.5385 11.8608C13.5788 11.9563 13.6182 12.0499 13.6566 12.1435C15.5342 11.9076 17.384 12.3045 17.4631 12.3208C17.4506 11.0269 16.9871 9.83953 16.2202 8.90991C16.2099 8.92454 15.3333 10.1894 13.1753 11.0694Z" fill="white"/>
</svg>
