<svg width="24" height="25" viewBox="0 0 24 25" fill="none" xmlns="http://www.w3.org/2000/svg">
<path opacity="0.1" fill-rule="evenodd" clip-rule="evenodd" d="M0 12.3857C0 5.75833 5.37258 0.385742 12 0.385742C18.6274 0.385742 24 5.75833 24 12.3857C24 19.0132 18.6274 24.3857 12 24.3857C5.37258 24.3857 0 19.0132 0 12.3857Z" fill="#F9F8F9"/>
<path fill-rule="evenodd" clip-rule="evenodd" d="M12.0002 5.98584C10.2621 5.98584 10.0439 5.99344 9.36125 6.02451C8.67991 6.05571 8.21484 6.16358 7.8079 6.32184C7.38696 6.48531 7.02989 6.70398 6.67415 7.05985C6.31815 7.41559 6.09948 7.77266 5.93548 8.19346C5.77681 8.60053 5.66881 9.06574 5.63814 9.74681C5.60761 10.4295 5.59961 10.6478 5.59961 12.3859C5.59961 14.1241 5.60734 14.3415 5.63828 15.0242C5.66961 15.7055 5.77748 16.1706 5.93561 16.5775C6.09921 16.9985 6.31788 17.3556 6.67375 17.7113C7.02936 18.0673 7.38643 18.2865 7.8071 18.45C8.2143 18.6082 8.67951 18.7161 9.36072 18.7473C10.0434 18.7784 10.2614 18.786 11.9994 18.786C13.7377 18.786 13.9552 18.7784 14.6378 18.7473C15.3192 18.7161 15.7848 18.6082 16.192 18.45C16.6128 18.2865 16.9693 18.0673 17.3249 17.7113C17.6809 17.3556 17.8996 16.9985 18.0636 16.5777C18.2209 16.1706 18.3289 15.7054 18.3609 15.0243C18.3916 14.3417 18.3996 14.1241 18.3996 12.3859C18.3996 10.6478 18.3916 10.4296 18.3609 9.74695C18.3289 9.0656 18.2209 8.60053 18.0636 8.1936C17.8996 7.77266 17.6809 7.41559 17.3249 7.05985C16.9689 6.70385 16.6129 6.48518 16.1916 6.32184C15.7836 6.16358 15.3182 6.05571 14.6369 6.02451C13.9542 5.99344 13.7369 5.98584 11.9982 5.98584H12.0002ZM11.426 7.13917C11.5964 7.1389 11.7866 7.13917 12.0002 7.13917C13.709 7.13917 13.9115 7.1453 14.5863 7.17597C15.2103 7.2045 15.549 7.30877 15.7746 7.39637C16.0733 7.51237 16.2862 7.65104 16.5101 7.87504C16.7341 8.09904 16.8728 8.31238 16.989 8.61105C17.0766 8.83639 17.181 9.17506 17.2094 9.79906C17.2401 10.4737 17.2468 10.6764 17.2468 12.3844C17.2468 14.0924 17.2401 14.2951 17.2094 14.9698C17.1809 15.5938 17.0766 15.9325 16.989 16.1578C16.873 16.4565 16.7341 16.6691 16.5101 16.893C16.2861 17.117 16.0734 17.2557 15.7746 17.3717C15.5493 17.4597 15.2103 17.5637 14.5863 17.5922C13.9117 17.6229 13.709 17.6295 12.0002 17.6295C10.2912 17.6295 10.0887 17.6229 9.41402 17.5922C8.79002 17.5634 8.45134 17.4591 8.22561 17.3715C7.92694 17.2555 7.7136 17.1169 7.4896 16.8929C7.2656 16.6689 7.12693 16.4561 7.01066 16.1573C6.92306 15.9319 6.81866 15.5933 6.79026 14.9692C6.75959 14.2946 6.75346 14.0919 6.75346 12.3828C6.75346 10.6737 6.75959 10.4721 6.79026 9.79746C6.81879 9.17345 6.92306 8.83478 7.01066 8.60918C7.12666 8.31051 7.2656 8.09718 7.4896 7.87317C7.7136 7.64917 7.92694 7.5105 8.22561 7.39424C8.45121 7.30624 8.79002 7.20223 9.41402 7.17357C10.0044 7.1469 10.2332 7.1389 11.426 7.13757V7.13917ZM15.4165 8.20185C14.9925 8.20185 14.6485 8.54545 14.6485 8.96959C14.6485 9.39359 14.9925 9.7376 15.4165 9.7376C15.8405 9.7376 16.1845 9.39359 16.1845 8.96959C16.1845 8.54558 15.8405 8.20185 15.4165 8.20185ZM12.0002 9.09919C10.1851 9.09919 8.71352 10.5708 8.71352 12.3859C8.71352 14.201 10.1851 15.6719 12.0002 15.6719C13.8153 15.6719 15.2864 14.201 15.2864 12.3859C15.2864 10.5708 13.8153 9.09919 12.0002 9.09919ZM12.0002 10.2525C13.1783 10.2525 14.1336 11.2076 14.1336 12.3859C14.1336 13.564 13.1783 14.5192 12.0002 14.5192C10.8219 14.5192 9.86684 13.564 9.86684 12.3859C9.86684 11.2076 10.8219 10.2525 12.0002 10.2525Z" fill="white"/>
</svg>
