<svg width="24" height="25" viewBox="0 0 24 25" fill="none" xmlns="http://www.w3.org/2000/svg">
<path opacity="0.1" fill-rule="evenodd" clip-rule="evenodd" d="M0 12.3857C0 5.75833 5.37258 0.385742 12 0.385742C18.6274 0.385742 24 5.75833 24 12.3857C24 19.0132 18.6274 24.3857 12 24.3857C5.37258 24.3857 0 19.0132 0 12.3857Z" fill="#F9F8F9"/>
<path fill-rule="evenodd" clip-rule="evenodd" d="M17.0004 8.2605C17.5512 8.41164 17.9849 8.85695 18.1321 9.42245C18.3996 10.4474 18.3996 12.5858 18.3996 12.5858C18.3996 12.5858 18.3996 14.7242 18.1321 15.7492C17.9849 16.3147 17.5512 16.76 17.0004 16.9112C16.0023 17.1858 11.9996 17.1858 11.9996 17.1858C11.9996 17.1858 7.99692 17.1858 6.99874 16.9112C6.44797 16.76 6.01423 16.3147 5.86703 15.7492C5.59961 14.7242 5.59961 12.5858 5.59961 12.5858C5.59961 12.5858 5.59961 10.4474 5.86703 9.42245C6.01423 8.85695 6.44797 8.41164 6.99874 8.2605C7.99692 7.98584 11.9996 7.98584 11.9996 7.98584C11.9996 7.98584 16.0023 7.98584 17.0004 8.2605ZM10.7996 10.7858V14.7858L13.9996 12.7859L10.7996 10.7858Z" fill="white"/>
</svg>
