<svg width="17" height="16" viewBox="0 0 17 16" fill="none" xmlns="http://www.w3.org/2000/svg">
<path d="M15.0455 0.319824H1.95455C1.15091 0.319824 0.5 0.944697 0.5 1.71619V14.2835C0.5 15.055 1.15091 15.6798 1.95455 15.6798H9.22727V9.39619H7.04545V7.30164H9.22727V6.17687C9.22727 4.04742 10.308 3.11255 12.1516 3.11255C13.0345 3.11255 13.5015 3.17539 13.7225 3.20401V5.2071H12.4651C11.6825 5.2071 11.4091 5.60366 11.4091 6.40657V7.30164H13.7029L13.3916 9.39619H11.4091V15.6798H15.0455C15.8491 15.6798 16.5 15.055 16.5 14.2835V1.71619C16.5 0.944697 15.8484 0.319824 15.0455 0.319824Z" fill="#F5F5F5"/>
</svg>
