<svg width="37" height="37" viewBox="0 0 37 37" fill="none" xmlns="http://www.w3.org/2000/svg">
<path d="M27.3443 22.5419L23.6042 25.9808C21.6811 27.6573 19.4216 28.903 16.9774 29.6344L17.9698 34.2643C18.0205 34.5007 18.1261 34.7219 18.278 34.9099C18.4299 35.098 18.6239 35.2477 18.8444 35.347C19.0649 35.4463 19.3056 35.4923 19.5471 35.4814C19.7886 35.4705 20.0242 35.403 20.2348 35.2843L26.2555 31.8886C27.1028 31.3737 27.7648 30.603 28.1458 29.6875C28.5267 28.7721 28.6071 27.7594 28.3753 26.7953L27.3443 22.5419ZM11.2016 13.5293L14.4217 9.70617L10.4059 8.73727C9.42966 8.39684 8.36318 8.4212 7.40346 8.80584C6.44375 9.19049 5.65566 9.90944 5.18474 10.8299L1.79278 16.8422C1.67393 17.0528 1.60629 17.2884 1.59533 17.53C1.58437 17.7716 1.6304 18.0123 1.72969 18.2328C1.82899 18.4533 1.97876 18.6474 2.16691 18.7993C2.35506 18.9512 2.57631 19.0567 2.81278 19.1073L7.54993 20.1227C8.33528 17.7121 9.57481 15.474 11.2016 13.5293ZM25.7983 13.5916C26.2556 13.5916 26.7027 13.4559 27.083 13.2018C27.4633 12.9477 27.7597 12.5866 27.9347 12.164C28.1098 11.7415 28.1556 11.2765 28.0663 10.8279C27.9771 10.3793 27.7569 9.9673 27.4335 9.64389C27.11 9.32048 26.698 9.10024 26.2494 9.01101C25.8008 8.92178 25.3359 8.96758 24.9133 9.1426C24.4908 9.31763 24.1296 9.61403 23.8755 9.99432C23.6214 10.3746 23.4858 10.8217 23.4858 11.2791C23.486 11.8923 23.7297 12.4804 24.1633 12.914C24.597 13.3476 25.185 13.5913 25.7983 13.5916Z" fill="#027794"/>
<path d="M34.8442 3.17879C34.7747 2.91474 34.6363 2.67387 34.4432 2.48079C34.2501 2.2877 34.0093 2.14931 33.7452 2.07975C30.5827 1.25768 27.2523 1.34583 24.1377 2.33405C21.0231 3.32226 18.2511 5.17033 16.141 7.6653L11.2021 13.5294C8.73481 16.4721 7.16962 20.0647 6.69453 23.8754C6.66406 24.1096 6.68778 24.3476 6.76387 24.5712C6.83996 24.7948 6.96638 24.9979 7.13338 25.1649L11.9127 29.9442C12.0558 30.0874 12.2257 30.201 12.4127 30.2785C12.5998 30.356 12.8002 30.3959 13.0027 30.3959C13.0471 30.3959 13.0915 30.3936 13.1367 30.3899C17.0059 30.0702 20.6726 28.5258 23.6046 25.9809L29.2518 20.7883C31.7557 18.6838 33.6105 15.9116 34.6005 12.7942C35.5905 9.67677 35.675 6.34235 34.8442 3.17879ZM25.7987 13.5915C25.3413 13.5915 24.8942 13.4559 24.514 13.2018C24.1337 12.9477 23.8373 12.5866 23.6622 12.164C23.4872 11.7414 23.4414 11.2765 23.5306 10.8279C23.6199 10.3793 23.8401 9.96727 24.1635 9.64386C24.4869 9.32045 24.899 9.10021 25.3476 9.01098C25.7961 8.92175 26.2611 8.96755 26.6837 9.14258C27.1062 9.3176 27.4674 9.614 27.7215 9.99429C27.9756 10.3746 28.1112 10.8217 28.1112 11.279C28.111 11.8923 27.8673 12.4804 27.4337 12.914C27 13.3476 26.412 13.5913 25.7987 13.5915Z" fill="#C3E8F1"/>
</svg>
