<svg width="37" height="37" viewBox="0 0 37 37" fill="none" xmlns="http://www.w3.org/2000/svg">
<path d="M9.24935 25.4377C8.18216 25.4377 7.13893 25.1212 6.25159 24.5283C5.36425 23.9354 4.67265 23.0927 4.26425 22.1067C3.85585 21.1208 3.749 20.0358 3.9572 18.9892C4.1654 17.9425 4.6793 16.981 5.43392 16.2264C6.18854 15.4718 7.14999 14.9579 8.19668 14.7497C9.24337 14.5415 10.3283 14.6483 11.3142 15.0567C12.3002 15.4651 13.1429 16.1567 13.7358 17.0441C14.3287 17.9314 14.6452 18.9746 14.6452 20.0418C14.6435 21.4724 14.0744 22.8438 13.0629 23.8554C12.0513 24.8669 10.6799 25.4359 9.24935 25.4377Z" fill="#0388A9"/>
<path d="M13.3197 23.5442C12.8202 24.1373 12.1971 24.614 11.494 24.9411C10.7909 25.2682 10.0248 25.4376 9.24935 25.4376C8.4739 25.4376 7.70782 25.2682 7.00472 24.9411C6.30163 24.614 5.6785 24.1373 5.17895 23.5442C4.06893 24.2324 3.15248 25.1919 2.516 26.3324C1.87951 27.4729 1.54397 28.7566 1.54102 30.0627C1.54102 30.4715 1.70344 30.8637 1.99256 31.1528C2.28168 31.4419 2.67381 31.6043 3.08268 31.6043H15.416C15.8249 31.6043 16.217 31.4419 16.5061 31.1528C16.7953 30.8637 16.9577 30.4715 16.9577 30.0627C16.9547 28.7566 16.6192 27.4729 15.9827 26.3324C15.3462 25.1919 14.4298 24.2324 13.3197 23.5442ZM27.7493 25.4377C26.6822 25.4377 25.6389 25.1212 24.7516 24.5283C23.8642 23.9354 23.1726 23.0927 22.7642 22.1067C22.3559 21.1208 22.249 20.0358 22.4572 18.9892C22.6654 17.9425 23.1793 16.981 23.9339 16.2264C24.6885 15.4718 25.65 14.9579 26.6967 14.7497C27.7434 14.5415 28.8283 14.6483 29.8142 15.0567C30.8002 15.4651 31.6429 16.1567 32.2358 17.0441C32.8287 17.9314 33.1452 18.9746 33.1452 20.0418C33.1435 21.4724 32.5744 22.8438 31.5629 23.8554C30.5513 24.8669 29.1799 25.4359 27.7493 25.4377Z" fill="#C3E8F1"/>
<path d="M31.8198 23.5439C31.3202 24.137 30.6971 24.6138 29.994 24.9409C29.2909 25.2679 28.5248 25.4374 27.7493 25.4374C26.9739 25.4374 26.2078 25.2679 25.5047 24.9409C24.8016 24.6138 24.1785 24.137 23.6789 23.5439C22.5689 24.2321 21.6525 25.1917 21.016 26.3322C20.3795 27.4726 20.044 28.7564 20.041 30.0624C20.041 30.4713 20.2034 30.8634 20.4926 31.1526C20.7817 31.4417 21.1738 31.6041 21.5827 31.6041H33.916C34.3249 31.6041 34.717 31.4417 35.0061 31.1526C35.2953 30.8634 35.4577 30.4713 35.4577 30.0624C35.4547 28.7564 35.1192 27.4726 34.4827 26.3322C33.8462 25.1917 32.9298 24.2321 31.8198 23.5439Z" fill="#027794"/>
<path d="M26.5281 8.93085L23.4447 5.84751C23.1548 5.56275 22.7641 5.40402 22.3577 5.40586C21.9513 5.4077 21.562 5.56996 21.2746 5.85734C20.9873 6.14472 20.825 6.53395 20.8232 6.94036C20.8213 7.34677 20.9801 7.73746 21.2648 8.02743L21.7165 8.47914H15.2848L15.7365 8.02743C16.0226 7.73772 16.1824 7.34659 16.1811 6.93945C16.1798 6.5323 16.0175 6.1422 15.7296 5.8543C15.4417 5.56641 15.0516 5.40411 14.6444 5.40284C14.2373 5.40157 13.8462 5.56142 13.5565 5.84751L10.4732 8.93085C10.33 9.07396 10.2164 9.24388 10.1389 9.43091C10.0614 9.61794 10.0215 9.8184 10.0215 10.0208C10.0215 10.2233 10.0614 10.4238 10.1389 10.6108C10.2164 10.7978 10.33 10.9677 10.4732 11.1109L13.5565 14.1942C13.8462 14.4803 14.2373 14.6401 14.6445 14.6388C15.0516 14.6375 15.4417 14.4752 15.7296 14.1873C16.0175 13.8994 16.1798 13.5093 16.1811 13.1021C16.1823 12.695 16.0225 12.3039 15.7364 12.0142L15.2847 11.5625H21.7163L21.2646 12.0142C20.9756 12.3033 20.8132 12.6954 20.8132 13.1042C20.8132 13.513 20.9756 13.9051 21.2647 14.1942C21.5538 14.4833 21.9459 14.6457 22.3548 14.6456C22.7636 14.6456 23.1557 14.4832 23.4447 14.1941L26.5281 11.1108C26.6712 10.9676 26.7848 10.7977 26.8623 10.6107C26.9398 10.4237 26.9797 10.2232 26.9797 10.0208C26.9797 9.81837 26.9398 9.61791 26.8623 9.43089C26.7848 9.24388 26.6712 9.07396 26.5281 8.93085Z" fill="#027794"/>
</svg>
