<svg width="17" height="16" viewBox="0 0 17 16" fill="none" xmlns="http://www.w3.org/2000/svg">
<path d="M8.5 0C4.082 0 0.5 3.582 0.5 8C0.5 9.50081 0.921561 10.9 1.64062 12.1003L0.571615 16L4.55469 14.9544C5.71957 15.6167 7.06433 16 8.5 16C12.918 16 16.5 12.418 16.5 8C16.5 3.582 12.918 0 8.5 0ZM5.76172 4.26823C5.89172 4.26823 6.02529 4.26744 6.14063 4.27344C6.28329 4.27677 6.43857 4.28722 6.58724 4.61589C6.76391 5.00655 7.14858 5.9866 7.19792 6.08594C7.24725 6.18527 7.28221 6.30229 7.21354 6.43229C7.14821 6.56563 7.11423 6.64632 7.01823 6.76432C6.9189 6.87899 6.81005 7.02141 6.72005 7.10807C6.62072 7.20741 6.51815 7.31632 6.63281 7.51432C6.74748 7.71232 7.14571 8.36142 7.73437 8.88542C8.49104 9.56142 9.12946 9.76916 9.32812 9.86849C9.52679 9.96782 9.64184 9.95234 9.75651 9.81901C9.87451 9.68901 10.2521 9.24294 10.3854 9.04427C10.5154 8.8456 10.6481 8.87998 10.8281 8.94531C11.0108 9.01065 11.9849 9.49051 12.1836 9.58984C12.3823 9.68918 12.5125 9.73834 12.5625 9.81901C12.6138 9.90234 12.6139 10.2991 12.4492 10.7617C12.2846 11.2237 11.4759 11.6705 11.1133 11.7018C10.7473 11.7358 10.4057 11.8663 8.73438 11.2083C6.71838 10.4143 5.44699 8.34948 5.34766 8.21615C5.24832 8.08615 4.54036 7.1426 4.54036 6.16927C4.54036 5.1926 5.05244 4.71429 5.23177 4.51562C5.41444 4.31696 5.62839 4.26823 5.76172 4.26823Z" fill="#F5F5F5"/>
</svg>
