<svg width="21" height="16" viewBox="0 0 21 16" fill="none" xmlns="http://www.w3.org/2000/svg">
<path d="M19.9417 3.07812C19.7568 2.04724 18.8759 1.29651 17.8536 1.06213C16.3238 0.734375 13.4926 0.5 10.4293 0.5C7.36786 0.5 4.4913 0.734375 2.95967 1.06213C1.93919 1.29651 1.05646 1.99963 0.871579 3.07812C0.684883 4.25 0.5 5.89062 0.5 8C0.5 10.1094 0.684883 11.75 0.916893 12.9219C1.10359 13.9528 1.9845 14.7035 3.00499 14.9379C4.62906 15.2656 7.41318 15.5 10.4764 15.5C13.5397 15.5 16.3238 15.2656 17.9479 14.9379C18.9684 14.7035 19.8493 14.0004 20.036 12.9219C20.2209 11.75 20.4529 10.0618 20.5 8C20.4057 5.89062 20.1737 4.25 19.9417 3.07812ZM7.92432 11.2812V4.71875L13.585 8L7.92432 11.2812Z" fill="#F5F5F5"/>
</svg>
